<?xml version="1.0" standalone="no"?>
<!DOCTYPE svg PUBLIC "-//W3C//DTD SVG 1.1//EN" "http://www.w3.org/Graphics/SVG/1.1/DTD/svg11.dtd" >
<!--
2013-9-30: Created.
-->
<svg>
<metadata>
Created by iconfont
</metadata>
<defs>

<font id="iconfont" horiz-adv-x="1024" >
  <font-face
    font-family="iconfont"
    font-weight="500"
    font-stretch="normal"
    units-per-em="1024"
    ascent="896"
    descent="-128"
  />
    <missing-glyph />
    
    <glyph glyph-name="x" unicode="x" horiz-adv-x="1001"
d="M281 543q-27 -1 -53 -1h-83q-18 0 -36.5 -6t-32.5 -18.5t-23 -32t-9 -45.5v-76h912v41q0 16 -0.5 30t-0.5 18q0 13 -5 29t-17 29.5t-31.5 22.5t-49.5 9h-133v-97h-438v97zM955 310v-52q0 -23 0.5 -52t0.5 -58t-10.5 -47.5t-26 -30t-33 -16t-31.5 -4.5q-14 -1 -29.5 -0.5
t-29.5 0.5h-32l-45 128h-439l-44 -128h-29h-34q-20 0 -45 1q-25 0 -41 9.5t-25.5 23t-13.5 29.5t-4 30v167h911zM163 247q-12 0 -21 -8.5t-9 -21.5t9 -21.5t21 -8.5q13 0 22 8.5t9 21.5t-9 21.5t-22 8.5zM316 123q-8 -26 -14 -48q-5 -19 -10.5 -37t-7.5 -25t-3 -15t1 -14.5
t9.5 -10.5t21.5 -4h37h67h81h80h64h36q23 0 34 12t2 38q-5 13 -9.5 30.5t-9.5 34.5q-5 19 -11 39h-368zM336 498v228q0 11 2.5 23t10 21.5t20.5 15.5t34 6h188q31 0 51.5 -14.5t20.5 -52.5v-227h-327z" />
    

    
    <glyph glyph-name="yunshangchuan" unicode="&#58880;" d="M1024 118.752q0-25.6-8.704-48.128t-24.576-40.448-36.864-30.208-45.568-16.384l1.024-1.024-17.408 0-4.096 0-4.096 0-675.84 0q-5.12-1.024-16.384-1.024-39.936 0-74.752 15.36t-60.928 41.472-40.96 60.928-14.848 74.752 14.848 74.752 40.96 60.928 60.928 41.472 74.752 15.36l1.024 0q-1.024 8.192-1.024 15.36l0 16.384q0 72.704 27.648 137.216t75.776 112.128 112.128 75.264 136.704 27.648 137.216-27.648 112.64-75.264 75.776-112.128 27.648-137.216q0-37.888-8.192-74.24t-22.528-69.12q5.12 1.024 10.752 1.536t10.752 0.512q27.648 0 52.736-10.752t43.52-29.696 29.184-44.032 10.752-53.76zM665.6 240.608q20.48 0 26.624 4.608t-8.192 22.016q-14.336 18.432-31.744 48.128t-36.352 60.416-38.4 57.344-37.888 38.912q-18.432 13.312-27.136 14.336t-25.088-12.288q-18.432-15.36-35.84-38.912t-35.328-50.176-35.84-52.224-36.352-45.056q-18.432-18.432-13.312-32.768t25.6-14.336l16.384 0q9.216 0 19.968-0.512t20.992-0.512l17.408 0q14.336-1.024 18.432-9.728t4.096-24.064q0-17.408-0.512-30.72t-0.512-25.6-0.512-25.6-0.512-30.72q0-7.168 1.536-15.36t5.632-15.36 12.288-11.776 21.504-4.608l23.552 0q9.216 0 27.648-1.024 24.576 0 28.16 12.288t3.584 38.912q0 23.552 0.512 42.496t0.512 51.712q0 23.552 4.608 36.352t19.968 12.8q11.264 0 32.256 0.512t32.256 0.512z"  horiz-adv-x="1024" />

    
    <glyph glyph-name="shouye" unicode="&#58881;" d="M1001.423238 317.408q21.504-20.48 22.528-45.056t-16.384-40.96q-19.456-17.408-45.056-16.384t-40.96 14.336q-5.12 4.096-31.232 28.672t-62.464 58.88-77.824 73.728-78.336 74.24-63.488 60.416-33.792 31.744q-32.768 29.696-64.512 28.672t-62.464-28.672q-10.24-9.216-38.4-35.328t-65.024-60.928-77.824-72.704-75.776-70.656-59.904-55.808-30.208-27.136q-15.36-12.288-40.96-13.312t-44.032 15.36q-20.48 18.432-19.456 44.544t17.408 41.472q6.144 6.144 37.888 35.84t75.776 70.656 94.72 88.064 94.208 88.064 74.752 70.144 36.352 34.304q38.912 37.888 83.968 38.4t76.8-30.208q6.144-5.12 25.6-24.064t47.616-46.08 62.976-60.928 70.656-68.096 70.144-68.096 62.976-60.928 48.128-46.592zM447.439238 465.888q25.6 23.552 61.44 25.088t64.512-25.088q3.072-3.072 18.432-17.408l38.912-35.84q22.528-21.504 50.688-48.128t57.856-53.248q68.608-63.488 153.6-142.336l0-194.56q0-22.528-16.896-39.936t-45.568-18.432l-193.536 0 0 158.72q0 33.792-31.744 33.792l-195.584 0q-17.408 0-24.064-10.24t-6.656-23.552q0-6.144-0.512-31.232t-0.512-53.76l0-73.728-187.392 0q-29.696 0-47.104 13.312t-17.408 37.888l0 203.776q83.968 76.8 152.576 139.264 28.672 26.624 57.344 52.736t52.224 47.616 39.424 36.352 19.968 18.944z"  horiz-adv-x="1029" />

    
    <glyph glyph-name="tupian" unicode="&#58882;" d="M125 550v-625h875v625h-875zM937.5 29.1562l-125 208.3438-141.6563-118.0625-108.3438 180.5625-375-312.5v500h750v-458.34375zM250 331.25c0 51.7813 41.9688 93.75 93.75 93.75s93.75-41.9688 93.75-93.75c0-51.7813-41.9688-93.75-93.75-93.75-51.7813 0-93.75 41.9688-93.75 93.75zM875 675h-875v-625h62.5v562.5h812.5z"  horiz-adv-x="1000" />

    
    <glyph glyph-name="guanbi" unicode="&#58883;" d="M843.741184 574.658304 786.397184 633.026304 511.364096 357.147392 236.509184 632.002304 179.165184 573.634304 453.597184 299.202304 179.165184 23.746304 236.509184-34.621696 511.541248 241.25824 786.397184-33.597696 843.741184 24.770304 569.309184 299.202304Z"  horiz-adv-x="1024" />

    
    <glyph glyph-name="zhengque" unicode="&#58913;" d="M970.150912 581.61024 911.39072 639.326976 349.74208 77.677312 113.287168 313.089792 53.85728 254.696192 349.069312-39.472384Z"  horiz-adv-x="1024" />

    
    <glyph glyph-name="rili" unicode="&#58924;" d="M890.12736 666.327808 846.738432 666.327808l0 12.89216c0 38.643712-31.466496 70.234112-69.922816 70.234112l-1.031168 0c-38.458368 0-69.922816-31.5904-69.922816-70.234112l0-12.89216L319.162368 666.327808l0 12.89216c0 38.643712-31.465472 70.234112-69.922816 70.234112l-1.062912 0c-38.45632 0-69.922816-31.5904-69.922816-70.234112l0-12.89216-43.295744 0c-38.458368 0-69.922816-31.622144-69.922816-70.206464l0-671.446016c0-38.644736 31.465472-70.23616 69.922816-70.23616l755.16928 0c38.458368 0 69.922816 31.591424 69.922816 70.23616L960.050176 596.121344C960.050176 634.705664 928.585728 666.327808 890.12736 666.327808zM733.830144 679.220992c0 23.222272 18.792448 42.138624 41.954304 42.138624l1.031168 0c23.130112 0 41.954304-18.917376 41.954304-42.138624l0-124.926976c0-23.22432-18.824192-42.139648-41.954304-42.139648l-1.031168 0c-23.161856 0-41.954304 18.915328-41.954304 42.139648L733.830144 679.220992zM206.22336 679.220992c0 23.222272 18.792448 42.138624 41.954304 42.138624l1.062912 0c23.098368 0 41.954304-18.917376 41.954304-42.138624l0-124.926976c0-23.22432-18.855936-42.139648-41.954304-42.139648l-1.062912 0c-23.161856 0-41.954304 18.915328-41.954304 42.139648L206.22336 679.220992zM890.12736-89.404672l-755.16928 0c-7.584768 0-13.984768 6.524928-13.984768 14.08L120.973312 418.350848l783.137792 0 0-493.67552C904.111104-82.879744 897.712128-89.404672 890.12736-89.404672zM223.755264 317.800192l129.024 0 0-63.488-129.024 0 0 63.488ZM449.035264 317.800192l128 0 0-63.488-128 0 0 63.488ZM673.291264 317.800192l125.952 0 0-63.488-125.952 0 0 63.488ZM223.755264 188.776192l129.024 0 0-62.464-129.024 0 0 62.464ZM449.035264 188.776192l128 0 0-62.464-128 0 0 62.464ZM673.291264 188.776192l125.952 0 0-62.464-125.952 0 0 62.464ZM223.755264 62.824192l129.024 0 0-65.536-129.024 0 0 65.536ZM449.035264 62.824192l128 0 0-65.536-128 0 0 65.536ZM673.291264 62.824192l125.952 0 0-65.536-125.952 0 0 65.536Z"  horiz-adv-x="1024" />

    
    <glyph glyph-name="anonymous-iconfont" unicode="&#58887;" d="M384 812l256 0 0-384 384.064 0L1024.064 172 640 172l0-384L384-212l0 384-384.064 0L-0.064 428 384 428 384 812z"  horiz-adv-x="1024" />

    
    <glyph glyph-name="gonggao" unicode="&#58888;" d="M464.257692-116.830477c-30.464081 27.469632-62.710836 56.138578-96.757662 86.001723-34.040686 29.858028-65.694922 57.332776-94.963731 82.415035-34.040686 28.667923-68.082396 57.034994-102.129222 85.104283-6.569902-0.595564-13.139803-0.89744-19.705611-0.89744-5.376676-0.594541-11.050124-0.892323-17.026483-0.892323l-15.226412 0c-16.129006 0-29.264716 4.925173-39.417363 14.780635-10.15367 9.855462-15.232552 21.648043-15.232552 35.383882L63.798656 410.816898l0.897477 0-0.897477 0.89744c0 16.72287 5.227267 30.457686 15.677709 41.209564 10.450442 10.747785 23.442882 16.123212 38.972206 16.123212l51.062053 0c54.947709 46.586015 104.819607 88.390119 149.613646 125.417431 19.111045 16.124236 37.925319 31.801287 56.437706 47.031153 18.517503 15.231913 35.240051 29.115108 50.169692 41.656749 14.934757 12.540617 27.475901 22.994714 37.628548 31.354102 10.152647 8.362458 16.421684 13.438057 18.814274 15.230889 17.91782 13.141298 32.400257 19.111267 43.445265 17.917068 11.051147-1.194198 19.711751-6.569626 25.984882-16.127306 6.268014-9.552563 10.597804-21.197788 12.987324-34.936697 2.388497-13.735839 3.582745-26.276457 3.582745-37.622876l0-725.628472c0-11.347442-2.086609-23.441898-6.268014-36.283368-4.182428-12.8384-10.603944-22.991644-19.260454-30.458709-8.661627-7.467065-19.562342-10.597359-32.704192-9.404184C496.807359-141.614953 481.57583-132.957783 464.257692-116.830477zM753.623991 415.295909c12.541144-17.316387 22.545405-34.787294 30.012784-52.40658 7.462262-17.615193 11.19851-38.97057 11.19851-64.052828 0-23.887037-3.884633-45.3867-11.649807-64.501036-7.76415-19.111267-17.614909-36.428677-29.561487-51.957349-4.776994-6.569626-9.855876-12.391215-15.232552-17.469883-5.370536-5.073552-12.243349-7.611352-20.603088-7.611352-10.75233 0-19.859114 3.880377-27.322399 11.643178-7.467379 7.764847-11.19851 17.020652-11.19851 27.77253 0 4.776793 0.891337 9.552563 2.685268 14.334473l-0.897477 0c2.98818 6.569626 6.569902 12.8384 10.75233 18.809391 4.181405 5.975085 8.21033 12.094456 12.094964 18.367323 3.879517 6.268774 7.164467 13.438057 9.849736 21.49864 2.691408 8.06263 4.034042 17.768689 4.034042 29.115108 0 10.751878-1.342634 20.156062-4.034042 28.218692-2.685268 8.061606-5.971242 15.379269-9.849736 21.948895-3.884633 6.569626-7.913559 12.8384-12.094964 18.813484-4.182428 5.970992-7.467379 12.243859-9.855876 18.809391-1.793931 4.181229-2.685268 8.958022-2.685268 14.334473 0 10.750855 3.731131 20.007683 11.19851 27.770484 7.462262 7.764847 16.569046 11.645225 27.322399 11.645225 8.359739 0 15.232552-2.537799 20.603088-7.611352C743.768115 427.689171 748.846997 421.866558 753.623991 415.295909zM803.793683 13.065965c-7.170607-5.376451-15.529323-8.061606-25.087404-8.061606-11.942485 0-22.243517 4.330632-30.904121 12.987802-8.661627 8.66024-12.992441 18.961864-12.992441 30.90794 0 13.140275 5.078882 24.185842 15.232552 33.143864 0.594566 0.598634 1.193225 1.044796 1.788814 1.346671 0.600706 0.297782 1.195272 0.743944 1.793931 1.342578l0.897477 0.89744c16.722548 11.346419 32.252895 24.784476 46.58183 40.313148 14.335075 15.528672 26.876219 32.399921 37.628548 50.613748 10.75233 18.21485 19.111045 37.622876 25.082288 58.229193 5.975336 20.603247 8.958398 41.953508 8.958398 64.050782 0 44.792159-11.345872 85.704964-34.040686 122.732276s-51.067169 67.48602-85.107855 91.373057c-12.541144 8.958022-18.814274 20.904099-18.814274 35.833113 0 11.946077 4.330814 22.246677 12.992441 30.90794 8.660604 8.661264 18.96266 12.987802 30.904121 12.987802 10.15367 0 19.112069-3.28072 26.876219-9.850345 22.100248-15.528672 42.70743-33.594119 61.819499-54.200436 19.111045-20.603247 35.532729-42.999326 49.273238-67.188238 13.735392-24.185842 24.483628-50.015114 32.246755-77.489862 7.765173-27.469632 11.649807-55.840796 11.649807-85.104283 0-29.863145-3.884633-58.525951-11.649807-86.0007-7.76415-27.470655-18.660772-53.449329-32.698052-77.936023-14.033187-24.486694-30.60735-47.031153-49.718395-67.638493C847.39245 46.660084 826.487474 28.593614 803.793683 13.065965z"  horiz-adv-x="1024" />

    
    <glyph glyph-name="tishi" unicode="&#58889;" d="M816.782031 546.152213c15.375821-36.07052 24.247235-70.074985 26.612195-102.009302 2.36803-31.934317 0.593543-61.3513-5.319369-88.256066-5.917005-26.909883-14.489601-51.004651-25.728021-72.297606-11.23535-21.287839-22.913811-39.916105-35.037428-55.880705-12.123617-15.9646-23.50633-29.123294-34.153255-39.47506-10.645901-10.347672-18.036529-17.293875-22.176999-20.840654-5.911888-5.323239-11.383736-9.317203-16.41145-11.975752-5.024644-2.664689-9.45984-4.882194-13.306609-6.652514-3.841653-1.77646-7.540037-3.846608-11.087988-6.211469-3.546928-2.364861-7.093856-6.206352-10.641808-11.529591-7.688422-11.234879-13.605427-22.176069-17.741804-32.822546-4.141494-10.641361-7.688422-20.993127-10.646925-31.046087-2.958502-8.277524-6.210706-15.07637-9.758657-20.399609-3.546928-5.323239-7.389604-10.05296-11.530075-14.193257-4.72992-4.729721-9.463933-8.575306-14.193853-11.529591L410.505255 21.032404c-4.72992 2.954285-9.166138 6.798846-13.305586 11.529591-4.140471 4.140297-8.277871 9.463536-12.418342 15.9646-4.141494 6.506181-7.688422 14.786775-10.646925 24.840758-5.911888 17.147542-13.158223 30.898731-21.729796 41.246403-8.576689 10.347672-19.665701 20.551058-33.264987 30.605042-9.464956 7.093559-20.25822 16.558118-32.381837 28.381397-12.123617 11.828396-24.095779 25.722848-35.925695 41.692564-11.828893 15.9646-23.065266 33.851992-33.706051 53.6632-10.646925 19.811208-19.22259 41.545208-25.728021 65.197908-6.50236 23.652699-10.34913 48.934502-11.531098 75.839269-1.181968 26.909883 1.476693 55.145971 7.982123 84.715427 10.053382 47.305399 27.500462 87.074148 52.337146 119.302153 24.839754 32.229029 52.633917 58.104349 83.387605 77.615729 30.748572 19.516496 62.535843 33.56342 95.359767 42.133609 32.817784 8.576329 62.535843 12.863982 89.148038 12.863982 27.794163 0 56.771317-3.841491 86.931464-11.529591 30.163216-7.688099 59.287733-19.664875 87.37662-35.928281 28.094004-16.259312 53.817932-36.95875 77.176899-62.092174C782.926571 611.942615 801.997705 581.633309 816.782031 546.152213zM624.290056-33.966211l0-9.758248c0-2.954285 0.147362-6.206352 0.441063-9.758248 0.294725-3.546779 0.447204-7.093559 0.447204-10.641361-0.594566-11.234879-3.699407-23.505343-9.317594-36.810371-5.617163-13.30605-16.410427-22.916942-32.37672-28.828582-6.505431-2.369977-14.930664-5.770424-25.282864-10.205433-10.348107-4.435009-25.87129-6.652514-46.571596-6.652514-17.741804 0-32.37672 2.071172-43.906795 6.211469-11.535192 4.140297-20.552944 6.79987-27.059398 7.981788-8.277871 1.77646-14.930664 5.470595-19.959402 11.087523-5.024644 5.617951-8.87039 11.975752-11.530075 19.070334-2.663778 7.099698-4.287833 14.341636-4.881375 21.735024-0.589449 7.393387-0.884174 14.045901-0.884174 19.958564l0 27.499307L624.290056-33.966211z"  horiz-adv-x="1024" />

    
    <glyph glyph-name="user" unicode="&#58884;" d="M635.983 283.797c-5.539 1.802-40.502 17.566-18.656 83.989h-0.303c56.945 58.641 100.47 153.060 100.47 245.983 0 142.901-95.035 217.781-205.459 217.781-110.495 0-204.984-74.88-204.984-217.781 0-93.299 43.286-188.091 100.572-246.595 22.322-58.574-17.603-80.318-25.959-83.377-115.658-41.823-251.327-118.064-251.327-193.32 0-20.318 0-8.020 0-28.201 0-102.536 198.797-125.846 382.784-125.846 184.257 0 380.543 23.31 380.543 125.846 0 20.183 0 7.884 0 28.201-0 77.532-136.349 153.16-257.68 193.32z"  horiz-adv-x="1024" />

    
    <glyph glyph-name="txt" unicode="&#58885;" d="M903.340032 612.498176 760.496128 755.369728C729.529344 786.508544 667.998208 812 623.971328 812L144.038912 812c-44.04224 0-80.036864-35.981312-80.036864-80.007168l0-863.925248c0-44.0576 35.994624-80.067584 80.036864-80.067584l735.9232 0c44.041216 0 80.03584 36.009984 80.03584 80.067584L959.997952 476.014336C959.997952 520.008448 934.463488 581.452544 903.340032 612.498176L903.340032 612.498176zM703.993856 719.388416c4.342784-3.013632 8.101888-6.052864 11.342848-9.18528L858.243072 567.32544c3.15392-3.196928 6.10304-6.95808 9.222144-11.300864l-163.47136 0L703.993856 719.388416 703.993856 719.388416zM895.996928-131.932416c0-8.695808-7.402496-16.052224-16.034816-16.052224L144.038912-147.98464c-8.630272 0-16.036864 7.356416-16.036864 16.052224L128.002048 731.993856c0 8.628224 7.405568 16.02048 16.036864 16.02048l479.93344 0c4.871168 0 10.273792-0.61952 16.034816-1.709056l0-254.303232 254.239744 0c1.065984-5.73952 1.750016-11.236352 1.750016-15.986688L895.996928-131.932416 895.996928-131.932416zM292.506624 261.018368l154.013696 0 0-300.060672 130.944 0L577.46432 261.018368l154.036224 0 0 100.00384L292.506624 361.022208 292.506624 261.018368z"  horiz-adv-x="1024" />

    
    <glyph glyph-name="gongnengyezhankaigengduofanshe" unicode="&#58891;" d="M511.872 748c-247.424 0-448-200.576-448-448s200.576-448 448-448 448 200.576 448 448S759.296 748 511.872 748zM312.832 225.44c-41.28 0-74.688 33.344-74.688 74.496 0 41.152 33.408 74.56 74.688 74.56 41.28 0 74.688-33.472 74.688-74.56C387.456 258.848 354.048 225.44 312.832 225.44zM511.872 225.44c-41.28 0-74.688 33.344-74.688 74.496 0 41.152 33.408 74.56 74.688 74.56 41.28 0 74.688-33.472 74.688-74.56C586.496 258.848 553.088 225.44 511.872 225.44zM711.552 225.44c-41.28 0-74.688 33.344-74.688 74.496 0 41.152 33.408 74.56 74.688 74.56 41.28 0 74.688-33.472 74.688-74.56C786.176 258.848 752.768 225.44 711.552 225.44z"  horiz-adv-x="1024" />

    
    <glyph glyph-name="iconfonticonfontexcel" unicode="&#58886;" d="M903.388921 612.56427 760.511159 755.43826c-31.065466 31.060438-92.503709 56.561752-136.504005 56.561752l-480.020604 0c-44.005325 0-80.006367-36.001042-80.006367-80.001339l0-863.996103c0-44.000296 36.001042-80.002596 80.006367-80.002596l736.026899 0c44.000296 0 80.006367 35.996014 80.006367 80.002596L960.019817 476.001179C960.019817 520.001475 934.518502 581.498803 903.388921 612.56427L903.388921 612.56427zM704.007236 719.437218c4.312029-3.00082 8.127483-6.123584 11.250247-9.246348l142.877762-142.879019c3.127792-3.122764 6.253071-6.938218 9.315491-11.309333L704.007236 556.002517 704.007236 719.437218 704.007236 719.437218zM896.018243-131.996172c0-8.691944-7.375707-16.004793-16.003536-16.004793l-736.026899 0c-8.75103 0-16.004793 7.375707-16.004793 16.004793l0 863.996103c0 8.686916 7.375707 15.999765 16.004793 15.999765l480.020604 0c4.748261 0 10.248298-0.623547 15.999765-1.748697l0-254.248798 254.258855 0c1.128922-5.75021 1.753726-11.128304 1.753726-15.999765l0-608.004894L896.020757-131.996172zM895.643612-131.996172M520.963489-64.304859l-271.346056 0 0 29.177225c50.557598-3.921055 74.857075 12.628085 72.942434 49.600905L322.559867 370.433154c1.914641 35.012921-22.384836 51.515547-72.942434 49.600905L249.617433 449.211284 518.044384 449.211284c116.7089-3.921055 177.979941-49.600905 183.815638-137.13258-3.919798-91.451473-62.274248-139.091222-175.062093-142.96702l-84.61257 0L442.185358 20.308968c-3.921055-40.847361 22.338322-59.357657 78.77813-55.436602L520.963489-64.304859zM442.185358 358.763018 442.185358 204.124605l26.259377 0c70.025843-1.961156 105.037507 33.051765 105.037507 105.037507C569.561188 375.265643 542.345119 410.278565 491.786264 414.198363 458.689241 412.238464 442.185358 393.774682 442.185358 358.763018z"  horiz-adv-x="1024" />

    
    <glyph glyph-name="filecodeo" unicode="&#58890;" d="M862 558q14-14 24-38t10-44l0-576q0-20-14-34t-34-14l-672 0q-20 0-34 14t-14 34l0 800q0 20 14 34t34 14l448 0q20 0 44-10t38-24zm-222 122l0-188 188 0q-5 14.5-11 20.5l-156.5 156.5q-6 6-20.5 11zm192-764l0 512-208 0q-20 0-34 14t-14 34l0 208-384 0 0-768 640 0zm-464 448q4 5.5 10.5 6.25t12-3.25l25.5-19q5.5-4 6.25-10.5t-3.25-12l-91-121.5 91-121.5q4-5.5 3.25-12t-6.25-10.5l-25.5-19q-5.5-4-12-3.25t-10.5 6.25l-113 150.5q-7 9.5 0 19zm401-150.5q7-9.5 0-19l-113-150.5q-4-5.5-10.5-6.25t-12 3.25l-25.5 19q-5.5 4-6.25 10.5t3.25 12l91 121.5-91 121.5q-4 5.5-3.25 12t6.25 10.5l25.5 19q5.5 4 12 3.25t10.5-6.25zm-310-230.5q-6.5 1-10.25 6.5t-2.75 12l69 415.5q1 6.5 6.5 10.25t12 2.75l31.5-5q6.5-1 10.25-6.5t2.75-12l-69-415.5q-1-6.5-6.5-10.25t-12-2.75z"  horiz-adv-x="1024" />

    
    <glyph glyph-name="file" unicode="&#58897;" d="M903.432 612.57l-142.864 142.862C729.456 786.544 668 812 624 812L144 812C100 812 64 776 64 732l0-864c0-44 36-80 80-80l736 0c44 0 80 36 80 80L960 476C960 520 934.544 581.458 903.432 612.57zM858.178 567.314c3.13-3.13 6.25-6.974 9.28-11.314L704 556 704 719.456c4.34-3.03 8.184-6.15 11.314-9.28L858.178 567.314zM896-132c0-8.672-7.328-16-16-16L144-148c-8.672 0-16 7.328-16 16L128 732c0 8.672 7.328 16 16 16l480 0c4.832 0 10.254-0.61 16-1.704L640 492l254.296 0c1.094-5.746 1.704-11.166 1.704-16L896-132z"  horiz-adv-x="1024" />

    
    <glyph glyph-name="chenggong" unicode="&#58892;" d="M512.697 736.556c-247.54 0-448.208-200.668-448.208-448.208s200.668-448.208 448.208-448.208c247.54 0 448.208 200.668 448.208 448.208 0 247.54-200.668 448.208-448.208 448.208zM782.651 413.675l-310.141-316.86c-1.057-1.586-2.234-3.101-3.62-4.505-12.156-12.346-31.862-12.346-44.026 0l-154.053 156.424c-12.147 12.347-12.147 32.355 0 44.684 12.155 12.347 31.861 12.347 44.016 0l131.584-133.592 292.213 298.55c12.165 12.346 31.862 12.346 44.026 0 12.147-12.346 12.147-32.353-0-44.701z"  horiz-adv-x="1024" />

    
    <glyph glyph-name="shibai" unicode="&#58893;" d="M512.697 736.555c-247.539 0-448.208-200.669-448.208-448.208 0-247.54 200.669-448.208 448.208-448.208 247.54 0 448.208 200.668 448.208 448.208 0 247.539-200.668 448.208-448.208 448.208zM690.686 154.792c12.265-12.274 12.265-32.171 0-44.427-12.283-12.274-32.171-12.274-44.453 0l-133.316 133.316-133.327-133.316c-12.274-12.274-32.161-12.274-44.445 0-12.265 12.256-12.265 32.153 0 44.427l133.335 133.353-133.335 133.317c-12.265 12.256-12.265 32.171 0 44.444 12.283 12.256 32.171 12.256 44.445 0l133.327-133.335 133.316 133.335c12.283 12.256 32.171 12.256 44.453 0 12.265-12.274 12.265-32.189 0-44.444l-133.335-133.317 133.335-133.353z"  horiz-adv-x="1024" />

    
    <glyph glyph-name="jingshi" unicode="&#58894;" d="M512.697 735.532c-246.974 0-447.185-200.212-447.185-447.185s200.211-447.185 447.185-447.185 447.185 200.211 447.185 447.185-200.212 447.185-447.185 447.185zM475.066 498.501c0 19.967 15.947 36.185 35.622 36.185 19.664 0 35.611-16.218 35.611-36.185v-272.815c0-19.983-15.947-36.184-35.611-36.184-19.675 0-35.622 16.201-35.622 36.184v272.815zM510.689 41.094c-28.022 0-50.742 23.086-50.742 51.556s22.719 51.555 50.742 51.555c28.030 0 50.739-23.085 50.739-51.555s-22.709-51.556-50.739-51.556z"  horiz-adv-x="1024" />

    
    <glyph glyph-name="tishi1" unicode="&#58895;" d="M512.697383 747.53171c-246.974951 0-447.184809-200.192462-447.184809-447.184809 0-246.957555 200.209858-447.184809 447.184809-447.184809s447.184809 200.227254 447.184809 447.184809C959.882192 547.339248 759.671311 747.53171 512.697383 747.53171zM513.837346 550.795976c31.123858 0 56.344263-25.219381 56.344263-56.335053 0-31.115672-25.220405-56.371892-56.344263-56.371892-31.115672 0-56.353472 25.25622-56.353472 56.371892C457.483874 525.576595 482.721675 550.795976 513.837346 550.795976zM562.856783 57.793656l-39.676651 0c-20.74344 0-42.260499 18.051121-42.260499 34.5724L480.919632 320.726044l-14.08274 0c-20.74344 0-37.564547 16.813944-37.564547 37.556361 0 20.74344 16.821107 37.556361 37.564547 37.556361 0 0 45.817512 0.10847 47.000454 0 19.049868-1.419326 32.861432-9.752108 32.861432-25.25622l0-237.676168 16.158005 0c20.74344 0 37.556361-16.812921 37.556361-37.556361C600.413144 74.570761 583.600223 57.793656 562.856783 57.793656z"  horiz-adv-x="1024" />

    
    <glyph glyph-name="bangzhu" unicode="&#58896;" d="M512.697383 748.555016c-247.538793 0-448.208115-200.649879-448.208115-448.208115 0-247.520373 200.669322-448.208115 448.208115-448.208115s448.208115 200.687742 448.208115 448.208115C960.905498 547.905136 760.236176 748.555016 512.697383 748.555016zM510.988462 76.861944c-25.550932 0-46.25958 21.301142-46.25958 47.563272s20.708648 47.563272 46.25958 47.563272c25.561166 0 46.269813-21.301142 46.269813-47.563272S536.548604 76.861944 510.988462 76.861944zM640.211569 375.777871c-6.383384-12.291954-13.970176-22.86987-22.751167-31.769564-8.78099-8.936533-24.557302-23.927969-47.299259-45.046962-6.291287-5.945409-11.334139-11.161201-15.119349-15.684214-3.792373-4.487198-6.619768-8.608052-8.462742-12.365632-1.868557-3.719718-3.291976-7.477298-4.303003-11.197016-1.013073-3.756557-2.543939-10.32209-4.579295-19.733437-3.518127-19.950378-14.524808-29.910217-33.027208-29.910217-9.611915 0-17.708314 3.247974-24.26566 9.775644-6.573719 6.529717-9.848299 16.194844-9.848299 29.071106 0 16.086373 2.39863 30.055526 7.204076 41.836851 4.814656 11.818163 11.18883 22.177092 19.150152 31.076786 7.960299 8.899694 18.684548 19.514449 32.17991 31.806403 11.835559 10.724249 20.398586 18.821671 25.660426 24.293289 5.287423 5.470595 9.720386 11.562337 13.323447 18.273179 3.610224 6.711865 5.415336 14.007015 5.415336 21.848611 0 15.355733-5.508457 28.305673-16.503882 38.845727-11.016915 10.541077-25.205055 15.830547-42.594097 15.830547-20.354584 0-35.335786-5.325285-44.947701-15.975856-9.620102-10.650571-17.754363-26.297946-24.420179-47.052642-6.291287-21.666462-18.219967-32.499182-35.791158-32.499182-10.349719 0-19.10308 3.793396-26.217105 11.380188-7.121188 7.586792-10.6782 15.793708-10.6782 24.583908 0 18.237363 5.635347 36.694737 16.915251 55.405891 11.279904 18.675338 27.757181 34.17638 49.396014 46.432519 21.630646 12.292977 46.888913 18.420535 75.742055 18.420535 26.825972 0 50.489928-5.143137 71.025637-15.392572 20.534685-10.249435 36.392862-24.219611 47.580668-41.836851 11.189853-17.654079 16.788361-36.839023 16.788361-57.557904C649.785621 402.331643 646.593929 388.032986 640.211569 375.777871z"  horiz-adv-x="1024" />

    
    <glyph glyph-name="w-file" unicode="&#58899;" d="M973.76 566.688l-506.176-598.496c-43.84-49.76-107.104-78.336-173.472-78.336-56.224 0-110.432 20.48-152.736 57.76l-2.080 1.824c-46.304 40.768-73.984 97.184-77.888 158.752s16.384 121.024 57.184 167.328l114.912 123.744 235.104 266.976c29.728 33.76 72.608 53.152 117.696 53.152 38.112 0 74.848-13.856 103.456-39.072l1.568-1.376c64.864-57.152 71.2-156.384 14.080-221.216l-366.624-416.256c-15.776-14.816-36.384-23.584-58.208-23.584v0c-20.768 0-40.768 7.584-57.312 22.144-35.296 31.072-38.72 85.088-7.648 120.416l321.504 365.056c2.208 2.496 4.832 4.448 7.264 6.688l-44.704 44.704c-3.36-3.136-6.624-6.4-9.696-9.888l-321.504-365.056c-53.952-61.28-48-155.040 14.24-209.856 27.072-23.84 61.792-36.96 97.856-36.96 0 0 0 0 0 0 42.528 0 75.424 23.392 103.52 55.296l205.792 237.024 154.784 175.744c76.192 86.464 67.808 218.848-18.688 295.008l-1.568 1.408c-38.208 33.632-87.264 52.16-138.080 52.16-60.096 0-117.344-25.824-156.96-70.912l-16.256-18.432-333.76-372.256c-50.048-56.8-74.944-129.696-70.144-205.216s38.72-144.704 95.584-194.816l2.080-1.824c51.808-45.6 118.304-70.688 187.264-70.688 81.408 0 158.944 35.040 212.736 96.064l503.968 596-37.088 37.088z"  horiz-adv-x="1024" />

    
    <glyph glyph-name="fanhuidingbu01" unicode="&#58908;" d="M928 70.624c-8.192 0-16.384 3.136-22.624 9.376L512 473.376 118.624 80c-12.512-12.512-32.736-12.512-45.248 0s-12.512 32.736 0 45.248l416 416c12.512 12.512 32.736 12.512 45.248 0l416-416c12.512-12.512 12.512-32.736 0-45.248C944.384 73.76 936.192 70.624 928 70.624z"  horiz-adv-x="1024" />

    
    <glyph glyph-name="backward" unicode="&#58909;" d="M576 735.99v-320l320 320v-704l-320 320v-320l-352.010 352.010z"  horiz-adv-x="1024" />

    
    <glyph glyph-name="fileexcel" unicode="&#58910;" d="M743.03488 428l-135.29088 0-95.72352-141.02528-95.744 141.02528-135.29088 0 162.16064-242.46272-182.96832-269.53728 251.84256 0 0 91.56608-50.15552 0 50.15552 74.99776 111.39072-166.56384 140.45184 0-182.96832 269.53728 162.16064 242.46272zM917.8112 582.9312c-22.20032 30.28992-53.16608 65.69984-87.18336 99.69664s-69.40672 64.96256-99.69664 87.18336c-51.56864 37.82656-76.5952 42.1888-90.9312 42.1888l-496.00512 0c-44.11392 0-79.99488-35.88096-79.99488-79.99488l0-864.01024c0-44.11392 35.88096-79.99488 79.99488-79.99488l736.01024 0c44.11392 0 79.99488 35.88096 79.99488 79.99488l0 624.00512c0 14.336-4.36224 39.34208-42.1888 90.9312l0 0zM785.36704 637.36704c30.69952-30.69952 54.80448-58.38848 72.58112-81.36704l-153.94816 0 0 153.94816c22.97856-17.77664 50.688-41.8816 81.36704-72.58112l0 0zM896-132.00512c0-8.66304-7.33184-15.99488-15.99488-15.99488l-736.01024 0c-8.66304 0-15.99488 7.33184-15.99488 15.99488l0 864.01024c0 8.66304 7.33184 15.99488 15.99488 15.99488 0 0 495.96416 0 496.00512 0l0-224.01024c0-17.67424 14.31552-32.01024 32.01024-32.01024l224.01024 0 0-624.00512z"  horiz-adv-x="1024" />

    
    <glyph glyph-name="filemusic" unicode="&#58911;" d="M917.8112 582.9312c-22.20032 30.28992-53.16608 65.69984-87.18336 99.69664s-69.40672 64.96256-99.69664 87.18336c-51.56864 37.82656-76.5952 42.1888-90.9312 42.1888l-496.00512 0c-44.11392 0-79.99488-35.88096-79.99488-79.99488l0-864.01024c0-44.11392 35.88096-79.99488 79.99488-79.99488l736.01024 0c44.11392 0 79.99488 35.88096 79.99488 79.99488l0 624.00512c0 14.336-4.36224 39.34208-42.1888 90.9312l0 0zM785.36704 637.36704c30.69952-30.69952 54.80448-58.38848 72.58112-81.36704l-153.94816 0 0 153.94816c22.97856-17.77664 50.688-41.8816 81.36704-72.58112l0 0zM896-132.00512c0-8.66304-7.33184-15.99488-15.99488-15.99488l-736.01024 0c-8.66304 0-15.99488 7.33184-15.99488 15.99488l0 864.01024c0 8.66304 7.33184 15.99488 15.99488 15.99488 0 0 495.96416 0 496.00512 0l0-224.01024c0-17.67424 14.31552-32.01024 32.01024-32.01024l224.01024 0 0-624.00512zM756.28544 420.75008c-7.41376 6.08256-17.16224 8.51968-26.56256 6.63552l-320-64c-14.9504-2.99008-25.72288-16.11776-25.72288-31.37536l0-236.87168c-18.8416 8.17152-40.67328 12.88192-64 12.88192-70.69696 0-128-42.98752-128-96.01024s57.30304-96.01024 128-96.01024 128 42.98752 128 96.01024l0 229.76512 256 51.2 0-133.8368c-18.8416 8.17152-40.67328 12.88192-64 12.88192-70.69696 0-128-42.98752-128-96.01024s57.30304-96.01024 128-96.01024 128 42.98752 128 96.01024l0 320c0 9.58464-4.3008 18.67776-11.71456 24.73984z"  horiz-adv-x="1024" />

    
    <glyph glyph-name="filezip" unicode="&#58912;" d="M917.8112 582.9312c-22.20032 30.28992-53.16608 65.69984-87.18336 99.69664s-69.40672 64.96256-99.69664 87.18336c-51.56864 37.82656-76.5952 42.1888-90.9312 42.1888l-496.00512 0c-44.11392 0-79.99488-35.88096-79.99488-79.99488l0-864.01024c0-44.11392 35.88096-79.99488 79.99488-79.99488l736.01024 0c44.11392 0 79.99488 35.88096 79.99488 79.99488l0 624.00512c0 14.336-4.36224 39.34208-42.1888 90.9312l0 0 0 0zM785.36704 637.36704c30.69952-30.69952 54.80448-58.38848 72.58112-81.36704l-153.94816 0 0 153.94816c22.97856-17.77664 50.688-41.8816 81.36704-72.58112l0 0 0 0zM896-132.00512c0-8.66304-7.33184-15.99488-15.99488-15.99488l-736.01024 0c-8.66304 0-15.99488 7.33184-15.99488 15.99488l0 864.01024c0 8.66304 7.33184 15.99488 15.99488 15.99488 0 0 495.96416 0 496.00512 0l0-224.01024c0-17.67424 14.31552-32.01024 32.01024-32.01024l224.01024 0 0-624.00512zM256 748l128 0 0-64-128 0 0 64zM384 684l128 0 0-64-128 0 0 64zM256 620l128 0 0-64-128 0 0 64zM384 556l128 0 0-64-128 0 0 64zM256 492l128 0 0-64-128 0 0 64zM384 428l128 0 0-64-128 0 0 64zM256 364l128 0 0-64-128 0 0 64zM384 300l128 0 0-64-128 0 0 64zM256-35.99488c0-26.39872 21.6064-48.00512 48.00512-48.00512l160.01024 0c26.39872 0 48.00512 21.6064 48.00512 48.00512l0 160.01024c0 26.39872-21.6064 48.00512-48.00512 48.00512l-79.99488 0 0 64-128 0 0-271.99488zM448 44l0-64-128 0 0 64 128 0z"  horiz-adv-x="1024" />

    
    <glyph glyph-name="forward" unicode="&#58914;" d="M512 31.99v320l-320-320v704l320-320v320l352.010-352.010z"  horiz-adv-x="1024" />

    
    <glyph glyph-name="next" unicode="&#58915;" d="M768 768v-768h-128v352.010l-320-320v704l320-320v352.010z"  horiz-adv-x="1024" />

    
    <glyph glyph-name="eyeslash" unicode="&#58917;" d="M317.142857 49.142857l44.571429 80.571429q-49.714286 36-77.714286 90.857143t-28 116q0 69.142857 34.857143 128.571429-130.857143-66.857143-217.714286-201.714286 95.428571-147.428571 244-214.285714zm222.285714 433.714286q0 11.428571-8 19.428571t-19.428571 8q-71.428571 0-122.571429-51.142857t-51.142857-122.571429q0-11.428571 8-19.428571t19.428571-8 19.428571 8 8 19.428571q0 49.142857 34.857143 84t84 34.857143q11.428571 0 19.428571 8t8 19.428571zm207.428571 109.142857q0-4-0.571429-5.142857-60-107.428571-180-323.428571t-180.571429-324l-28-50.857143q-5.714286-9.142857-16-9.142857-6.857143 0-76.571429 40-9.142857 5.714286-9.142857 16 0 6.857143 25.142857 49.714286-81.714286 37.142857-150.571429 98.857143t-119.142857 140q-11.428571 17.714286-11.428571 39.428571t11.428571 39.428571q87.428571 134.285714 217.142857 212t283.428571 77.714286q50.857143 0 102.857143-9.714286l30.857143 55.428571q5.714286 9.142857 16 9.142857 2.857143 0 10.285714-3.428571t17.714286-8.857143 18.857143-10.571429 18-10.571429 11.142857-6.571429q9.142857-5.714286 9.142857-15.428571zm21.142857-255.428571q0-79.428571-45.142857-144.857143t-119.428571-94l160 286.857143q4.571429-25.714286 4.571429-48zm256-73.142857q0-20-11.428571-39.428571-22.285714-36.571429-62.285714-82.857143-85.714286-98.285714-198.571429-152.571429t-239.714286-54.285714l42.285714 75.428571q121.142857 10.285714 224.285714 78.285714t172.285714 175.428571q-65.714286 102.285714-161.142857 168l36 64q54.285714-36.571429 104.285714-87.428571t82.571429-105.142857q11.428571-19.428571 11.428571-39.428571z"  horiz-adv-x="1024" />

    
    <glyph glyph-name="filepicture" unicode="&#58918;" d="M832-84l-640 0 0 128 192 320 263.008-320 184.992 128 0-256zM832 332c0-53.024-42.976-96-96-96s-96 42.976-96 96 42.976 96 96 96c53.024 0 96-42.976 96-96zM917.792 582.912c-22.208 30.304-53.184 65.696-87.168 99.712s-69.408 64.96-99.712 87.168c-51.584 37.824-76.576 42.208-90.912 42.208l-496 0c-44.096 0-80-35.872-80-80l0-864c0-44.096 35.904-80 80-80l736 0c44.096 0 80 35.904 80 80l0 624c0 14.336-4.384 39.36-42.208 90.912zM785.376 637.376c30.688-30.688 54.784-58.4 72.576-81.376l-153.952 0 0 153.952c22.976-17.792 50.688-41.888 81.376-72.576zM896-132c0-8.672-7.328-16-16-16l-736 0c-8.672 0-16 7.328-16 16l0 864c0 8.672 7.328 16 16 16 0 0 495.968 0 496 0l0-224c0-17.664 14.336-32 32-32l224 0 0-624z"  horiz-adv-x="1024" />

    
    <glyph glyph-name="shezhitianchong" unicode="&#58898;" d="M967.882752 208.691968c26.207232 104.832-2.62144 173.251584-2.62144 173.251584l-100.272128 4.922368c-8.786944 31.470592-21.655552 61.147136-38.00576 88.600576l67.64544 76.797952c-55.595008 92.654592-124.363776 120.651776-124.363776 120.651776l-74.48064-67.513344c-27.746304 16.140288-57.759744 28.643328-89.506816 37.108736l-6.390784 100.893696c-104.827904 26.211328-173.251584-2.625536-173.251584-2.625536l-4.7616-96.979968c-31.289344-7.86432-61.060096-19.470336-88.580096-34.787328l-70.501376 63.904768c0 0-68.768768-27.997184-124.363776-120.651776 17.671168-20.058112 52.43904-43.088896 54.524928-72.580096 0.514048-7.28064-33.462272-93.239296-34.927616-93.313024l-90.230784-4.427776c0 0-28.828672-68.41856-2.625536-173.251584l89.423872-5.666816c8.444928-35.557376 21.997568-69.04832 39.94112-99.762176l-58.875904-64.949248c0 0 27.997184-68.768768 120.651776-124.363776l67.101696 59.101184c30.400512-18.198528 63.587328-32.063488 98.861056-40.890368l4.36224-88.844288c0 0 68.422656-28.832768 173.251584-2.625536l5.876736 92.72832c35.72224 9.469952 69.250048 24.103936 99.827712 43.199488l71.151616-62.669824c92.658688 55.590912 120.655872 124.363776 120.655872 124.363776l-64.81408 71.501824c15.968256 28.69248 27.952128 59.809792 35.791872 92.572672L967.882752 208.691968zM516.528128 76.656384c-118.956032 0-215.389184 96.433152-215.389184 215.39328 0 118.956032 96.433152 215.389184 215.389184 215.389184s215.39328-96.433152 215.39328-215.389184C731.921408 173.088512 635.48416 76.656384 516.528128 76.656384z"  horiz-adv-x="1024" />

    
    <glyph glyph-name="filetext" unicode="&#58919;" d="M917.792 666.912c-22.208 30.304-53.184 65.696-87.168 99.712s-69.408 64.96-99.712 87.168c-51.584 37.824-76.576 42.208-90.912 42.208h-496c-44.096 0-80-35.872-80-80v-864c0-44.096 35.904-80 80-80h736c44.096 0 80 35.904 80 80v624c0 14.336-4.384 39.36-42.208 90.912zM785.376 721.376c30.688-30.688 54.784-58.4 72.576-81.376h-153.952v153.952c22.976-17.792 50.688-41.888 81.376-72.576zM896-48c0-8.672-7.328-16-16-16h-736c-8.672 0-16 7.328-16 16v864c0 8.672 7.328 16 16 16 0 0 495.968 0 496 0v-224c0-17.664 14.336-32 32-32h224v-624zM736 64h-448c-17.664 0-32 14.336-32 32s14.336 32 32 32h448c17.664 0 32-14.336 32-32s-14.336-32-32-32zM736 192h-448c-17.664 0-32 14.336-32 32s14.336 32 32 32h448c17.664 0 32-14.336 32-32s-14.336-32-32-32zM736 320h-448c-17.664 0-32 14.336-32 32s14.336 32 32 32h448c17.664 0 32-14.336 32-32s-14.336-32-32-32z"  horiz-adv-x="1024" />

    
    <glyph glyph-name="xia" unicode="&#58925;" d="M690.56 302.0992 690.56 758.9568 333.44 758.9568 333.44 302.0992 76.9536 302.0992 512-158.9568 947.0464 302.0992Z"  horiz-adv-x="1024" />

    
    <glyph glyph-name="fileword" unicode="&#58920;" d="M639.776 336.096l44.224 0-51.008-226.176-66.336 318.016-106.56 0-77.12-318.016-57.824 318.016-111.392 0 113.088-511.872 108.832 0 76.288 302.72 68.256-302.72 100.352 0 129.632 511.872-170.432 0zM903.424 612.576l-142.88 142.848c-31.104 31.104-92.576 56.576-136.576 56.576l-480 0c-44 0-80-36-80-80l0-864c0-44 36-80 80-80l736 0c44 0 80 36 80 80l0 608c0 44-25.472 105.472-56.576 136.576zM858.176 567.328c3.136-3.136 6.24-6.976 9.28-11.328l-163.456 0 0 163.456c4.352-3.04 8.192-6.144 11.328-9.28l142.88-142.848zM896-132c0-8.672-7.328-16-16-16l-736 0c-8.672 0-16 7.328-16 16l0 864c0 8.672 7.328 16 16 16l480 0c4.832 0 10.24-0.608 16-1.696l0-254.304 254.304 0c1.088-5.76 1.696-11.168 1.696-16l0-608z"  horiz-adv-x="1024" />

    
    <glyph glyph-name="filepdf" unicode="&#58921;" d="M841.357403 223.155032c-15.973811 15.963591-41.922312 15.963591-89.823306 21.952493-31.937403-5.988902-67.870813 1.992894-107.790012-9.985932-15.973811 15.974833-35.933411 19.969819-49.904108 37.926304-39.92022 27.951615-73.860737 87.830412-89.823306 137.73452 0 7.981796 1.991872 7.981796 1.991872 15.963591 0-1.992894 21.962713 125.756717 15.973811 161.690127 0 9.97469-2.003114 5.988902-2.003114 13.970697l-1.991872 3.996008c-5.988902 15.963591-17.966705 23.945387-35.933411 27.941395l-9.97469-1.992894c-23.955607 5.988902-33.940517-13.980917-41.922312-21.962713-9.97469-53.889896 0-117.764701 25.948501-217.572917l-5.988902-11.977804-59.878798-127.749611-1.992894-1.991872c-19.959599-39.92022-39.929418-73.860737-55.89301-103.795026l-17.966705-7.992016c0-1.991872-31.937403-15.962569-37.926304-21.951471-59.878798-31.937403-97.805102-77.845503-103.794004-105.797118-5.988902-15.963591 0-17.956485 9.97469-31.937403l15.973811-5.979704c3.996008-7.992016 17.966705-3.996008 21.952493-7.992016 43.915206 5.988902 91.82642 47.912236 159.687013 173.657711 77.855723 15.974833 163.683021 45.919342 243.531638 55.89301 57.885904-31.937403 133.729315-59.878798 177.643499-55.89301 7.990994-3.984766 15.973811 3.996008 19.959599 0 7.990994 7.992016 17.965683 3.996008 21.961691 17.966705 11.978826 5.988902 7.982818 33.940517 7.982818 47.912236 0 7.981796-5.988902 11.977804-9.975712 19.958577L841.356381 223.155032zM212.585061-2.408879c5.988902 25.949523 39.919198 59.89004 81.841511 101.80111 5.988902 0 7.981796 7.982818 17.966705 13.970697-49.904108-71.856601-75.852609-107.779792-99.808216-113.768693L212.585061-2.408879zM478.069192 612.393788c15.963591 5.978682 21.952493-37.926304 21.952493-65.877919 0-33.930297-5.988902-51.897002-15.963591-71.856601-3.996008 23.955607-11.977804 65.867699-11.977804 89.823306C472.080291 560.486566 474.073185 616.379576 478.069192 612.393788L478.069192 612.393788zM398.220576 177.237734c11.977804 11.977804 17.966705 33.940517 29.944509 51.907222 25.948501 45.9081 41.912092 81.831291 51.897002 113.768693 19.959599-47.900994 51.897002-75.853631 83.834405-107.791034 3.996008 0 11.977804-9.97469 13.970697-7.981796-67.860593-21.951471-125.746497-29.934289-179.646613-51.897002L398.220576 177.237734zM827.377508 181.233742c0-9.985932-17.956485-1.992894-21.951471-5.988902-25.949523 5.988902-55.89301 9.985932-97.805102 29.945531 13.970697 0 33.930297 5.98788 43.915206 0 25.948501 5.98788 31.937403-3.996008 55.88279-3.996008 25.949523-9.975712 25.949523-15.963591 19.959599-21.952493L827.37853 181.233742zM903.229095 614.386682 759.516915 754.114096c-29.945531 35.923191-91.827442 51.897002-135.732428 57.885904l-479.06104-2.003114c-43.915206 5.988902-79.848617-35.923191-79.848617-77.845503l0-864.302767c0-35.933411 35.933411-83.834405 79.848617-77.845503l734.560262-2.003114c43.904986 5.98788 79.838397 35.932389 79.838397 81.840489l0 604.817757C959.123127 524.563376 935.166498 578.453272 903.229095 614.386682L903.229095 614.386682zM857.322017 566.475468c5.988902 0 3.996008-9.97469 9.985932-9.97469l-163.683021-2.003114L703.624927 720.17358l11.977804-9.97469 141.720308-141.720308L857.323039 566.475468zM895.248321-132.151383c0-3.996008-5.988902-15.973811-15.963591-13.970697l-734.560262-2.003114c-9.98491 5.98788-15.973811 7.990994-15.973811 17.965683l0 860.316979c0 15.963591 5.988902 11.977804 15.973811 17.966705l479.06104-2.003114c3.985788 3.996008 11.967584-1.992894 15.963591 2.003114l0-257.502335 253.506328 2.003114c0-7.981796 1.992894-9.98491 1.992894-17.966705l0-604.817757L895.248321-132.151383z"  horiz-adv-x="1024" />

    
    <glyph glyph-name="tagfill" unicode="&#58902;" d="M900.64 432.192l-263.072 256.032c-36.448 35.328-105.76 35.392-142.304-0.096l-327.04-319.904c-56.416-54.72-70.72-76.704-70.72-150.976l0-143.936c0-132.768 26.976-192 186.912-192l131.872 0c81.12 0 128.448 46.656 193.952 111.264l290.016 297.696c18.592 17.984 29.248 43.968 29.248 71.264C929.504 388.64 918.976 414.4 900.64 432.192zM323.008 25.248c-52.928 0-96 43.072-96 96s43.072 96 96 96 96-43.072 96-96S375.936 25.248 323.008 25.248z"  horiz-adv-x="1024" />

    
    <glyph glyph-name="eye" unicode="&#58922;" d="M512 684c-192 0-416-128-512-384 96-192 288-320 512-320s416 128 512 320c-96 256-320 384-512 384zm0-640c-192 0-352 128-384 256 32 128 192 256 384 256s352-128 384-256c-32-128-192-256-384-256zm0 448c-20 0-38-4-56-9 33-15 56-48 56-87 0-53-43-96-96-96-39 0-72 23-87 56-5-18-9-36-9-56 0-106 86-192 192-192s192 86 192 192-86 192-192 192z"  horiz-adv-x="1024" />

    
    <glyph glyph-name="filevideo" unicode="&#58923;" d="M917.792 582.912c-22.208 30.304-53.184 65.696-87.168 99.712s-69.408 64.96-99.712 87.168c-51.584 37.824-76.608 42.208-90.912 42.208l-496 0c-44.096 0-80-35.872-80-80l0-864c0-44.096 35.872-80 80-80l736 0c44.096 0 80 35.904 80 80l0 624c0 14.336-4.384 39.36-42.208 90.912l0 0 0 0zM785.376 637.376c30.688-30.688 54.784-58.4 72.576-81.376l-153.952 0 0 153.952c22.976-17.792 50.688-41.888 81.376-72.576l0 0 0 0zM896-132c0-8.672-7.328-16-16-16l-736 0c-8.672 0-16 7.328-16 16l0 864c0 8.672 7.328 16 16 16 0 0 495.968 0 496 0l0-224c0-17.664 14.336-32 32-32l224 0 0-624zM256 300l320 0 0-320-320 0 0 320zM576 172l192 128 0-320-192 128z"  horiz-adv-x="1024" />

    
    <glyph glyph-name="radiobox" unicode="&#58903;" d="M512 746.016C266.08 746.016 65.984 545.92 65.984 300c0-245.952 200.064-446.016 446.016-446.016 245.952 0 446.016 200.064 446.016 446.016C958.016 545.92 757.952 746.016 512 746.016zM512-82.016C301.344-82.016 129.984 89.376 129.984 300 129.984 510.656 301.344 682.016 512 682.016c210.624 0 382.016-171.36 382.016-382.016C894.016 89.376 722.624-82.016 512-82.016zM512 460c-88.224 0-160-71.776-160-160s71.776-160 160-160 160 71.776 160 160S600.224 460 512 460z"  horiz-adv-x="1024" />

    
    <glyph glyph-name="writefill" unicode="&#58904;" d="M918.4 497.344l-246.816 241.984C665.504 745.248 657.568 748 648.832 748.448c-8.512-0.096-16.64-3.552-22.56-9.632l-459.2-470.4c-4.416-4.512-7.392-10.272-8.576-16.448L96.544-78.688c-1.984-10.592 1.472-21.44 9.216-28.896C111.808-113.44 119.808-116.608 128-116.608c2.304 0 4.672 0.256 6.976 0.768l292.448 65.216c6.112 1.344 11.712 4.512 16.064 9.024l475.584 493.856C931.232 464.928 930.944 485.056 918.4 497.344zM428.352 8.896c-6.304-6.688-14.784-10.048-23.296-10.048-7.872 0-15.744 2.88-21.952 8.672l-182.112 171.392c-12.864 12.128-13.472 32.384-1.344 45.248s32.352 13.472 45.248 1.376l182.112-171.392C439.872 42.016 440.48 21.792 428.352 8.896z"  horiz-adv-x="1024" />

    
    <glyph glyph-name="radioboxfill" unicode="&#58905;" d="M512 746.016C266.08 746.016 65.984 545.92 65.984 300c0-245.952 200.064-446.016 446.016-446.016 245.952 0 446.016 200.064 446.016 446.016C958.016 545.92 757.952 746.016 512 746.016zM512 140c-88.224 0-160 71.776-160 160s71.776 160 160 160 160-71.776 160-160S600.224 140 512 140z"  horiz-adv-x="1024" />

    
    <glyph glyph-name="wangzhan" unicode="&#58906;" d="M510.651794 748.034153c-0.121773 0-0.24457 0-0.385786 0-0.051165 0-0.105401 0-0.173962 0-0.174985 0-0.347924-0.034792-0.523933-0.034792C262.795776 747.440635 62.962495 547.237941 62.962495 300.344854c0-246.825548 199.832258-447.060989 446.606641-447.65553 0.176009 0 0.348947-0.034792 0.523933-0.034792 0.068562 0 0.122797 0 0.173962 0 0.141216 0 0.264013 0 0.385786 0 247.210311 0 447.689299 200.481034 447.689299 447.691345C958.342116 547.587911 757.863129 748.034153 510.651794 748.034153zM528.559653 480.12031c47.461965 1.293459 93.647867 7.553023 138.120754 18.396999 13.411451-52.779064 21.718651-113.602338 23.032576-180.26562L528.559653 318.251689 528.559653 480.12031zM528.559653 515.933981 528.559653 709.385924C576.842309 696.025639 625.740996 631.669912 656.922159 532.967936 615.562169 522.99991 572.647777 517.193671 528.559653 515.933981zM492.743936 709.806503 492.743936 515.933981c-44.453445 1.258667-87.717807 7.17133-129.392976 17.314341C394.777717 632.543815 444.146101 697.143089 492.743936 709.806503zM492.743936 480.15408 492.743936 318.251689 330.474179 318.251689c1.311879 66.768683 9.653871 127.660518 23.067368 180.475398C398.361335 487.779757 444.897208 481.413769 492.743936 480.15408zM294.432311 318.251689 99.23256 318.251689c3.952009 92.056626 38.246069 176.417989 93.158726 243.221464 39.872103-21.964244 82.175581-39.940664 126.489856-53.373605C304.417733 450.984736 295.743166 386.594217 294.432311 318.251689zM294.432311 282.436996c1.310855-68.307735 9.985422-132.698255 24.448832-189.81102-44.296879-13.468756-86.617753-31.444153-126.489856-53.40942-54.912657 66.803475-89.205695 151.166885-93.158726 243.221464L294.432311 282.438019zM330.474179 282.436996l162.269757 0 0-161.691589c-47.846728-1.25969-94.399997-7.66047-139.219785-18.643616C340.110653 154.878808 331.786057 215.736874 330.474179 282.436996zM492.743936 84.963459l0-194.081277c-48.63365 12.69616-98.035804 77.366042-129.445164 176.766936C404.991336 77.794176 448.273095 83.704792 492.743936 84.963459zM528.559653-108.697239l0 193.660698c44.104497-1.258667 87.017866-7.099698 128.396275-17.067724C625.791138-30.875826 576.862775-95.33593 528.559653-108.697239zM528.559653 120.745407 528.559653 282.436996l161.152307 0c-1.313925-66.593697-9.620102-127.346363-22.978341-180.090635C622.226962 113.18829 576.040037 119.485717 528.559653 120.745407zM725.75485 282.436996l196.317201 0c-3.949962-92.054579-38.22765-176.383196-93.14133-243.185648-40.199561 22.104437-82.857103 40.222073-127.553071 53.721529C715.803197 150.01708 724.441948 214.269453 725.75485 282.436996zM725.75485 318.251689c-1.311879 68.272943-9.968026 132.559085-24.413016 189.638081 44.663222 13.500479 87.315648 31.583323 127.485533 53.68776 54.963823-66.803475 89.274256-151.199631 93.244684-243.326864L725.75485 318.250666zM804.151361 588.929482c-35.624359-18.955724-73.238025-34.625612-112.515586-46.518476-20.935822 67.36527-50.332339 122.346489-85.079724 158.441569C682.804642 682.558929 750.884181 643.107405 804.151361 588.929482zM413.331281 700.502603c-34.573423-36.024471-63.830771-90.76112-84.692914-157.77642-38.893822 11.857049-76.177983 27.386744-111.485117 46.203298C270.071484 642.757434 337.644485 682.104581 413.331281 700.502603zM217.030453 11.899396c35.341926 18.85237 72.644507 34.380018 111.573121 46.238091 20.862143-67.081815 50.120514-121.889071 84.727707-157.950382C337.592296-81.38008 269.983479-41.998141 217.030453 11.899396zM606.537631-100.129096c34.802644 36.094056 64.198138 91.112114 85.148285 158.581762 39.297005-11.927657 76.92909-27.562752 112.569822-46.588061C750.988558-42.349135 682.855808-81.870244 606.537631-100.129096z"  horiz-adv-x="1024" />

    
    <glyph glyph-name="san" unicode="&#58907;" d="M101.291 586.667h810.624v-85.333h-810.624v85.333zM101.291 330.667h810.624v-85.333h-810.624v85.333zM101.291 74.667h810.624v-85.333h-810.624v85.333z"  horiz-adv-x="1024" />

    
    <glyph glyph-name="paixu" unicode="&#58901;" d="M482.305701-75.428531 349.944114-75.428531 349.944114 409.893876 173.45961 409.893876 482.305701 718.736896 482.305701-75.428531 482.305701-75.428531 482.305701-75.428531zM570.542324 674.619096l132.366703 0 0-485.331617 176.48041 0L570.542324-119.554518 570.542324 674.619096 570.542324 674.619096 570.542324 674.619096zM570.542324 674.619096"  horiz-adv-x="1024" />

    
    <glyph glyph-name="image-add" unicode="&#58900;" d="M324.279 554.057c65.975 0 119.479-53.029 119.479-118.418 0-65.39-53.504-118.418-119.479-118.418-65.975 0-119.479 53.029-119.479 118.418 0 65.39 53.504 118.418 119.479 118.418v0zM136.558-54.857l204.8 270.629 136.521-169.143h34.121l238.958 473.6 204.8-575.086h-819.2zM989.879 441.563v-496.421c0-37.339-30.537-67.657-68.279-67.657h-750.958c-37.705 0-68.242 30.318-68.242 67.657v608.914c0 37.376 30.537 67.621 68.242 67.621h635.538v101.522h-737.902c-37.742 0-68.279-30.318-68.279-67.657v-811.886c0-37.376 30.537-67.657 68.279-67.657h955.721c37.778 0 68.315 30.281 68.315 67.657v597.906h-102.437zM988.233 800h104.046v-256.037h-104.046v256.037zM910.226 723.2h260.059v-102.437h-260.059v102.437z"  horiz-adv-x="1171" />

    
    <glyph glyph-name="shang-copy-copy" unicode="&#58926;" d="M981.646 396.953h-291.802v-466.865h-350.161v466.865h-291.802l466.885 466.864 466.885-466.864z"  horiz-adv-x="1000" />

    
    <glyph glyph-name="loading" unicode="&#58927;" d="M219.473 334.562h-102.981v-247.192l73.218 67.285c71.736-100.557 189.35-166.163 322.29-166.163 201.709 0 368.119 150.985 392.443 346.070h-99.916c-23.533-140.306-145.547-247.193-292.527-247.193-104.117 0-195.776 53.691-248.676 134.918l122.163 112.275h-166.014zM512 779.508c-201.709 0-368.12-150.984-392.443-346.070h99.915c23.533 140.307 145.548 247.193 292.528 247.193 107.232 0 201.215-56.904 253.323-142.185l-105.007-105.007h247.193v247.193l-70.796-70.796c-71.438 102.585-190.239 169.672-324.712 169.672z"  horiz-adv-x="1024" />

    
    <glyph glyph-name="previous" unicode="&#58916;" d="M256 0v768h128v-352.010l320 320v-704l-320 320v-352.010z"  horiz-adv-x="1024" />

    
    <glyph glyph-name="shangyi" unicode="&#58928;" d="M732.283032 830.062242 512 654.260284 291.716968 478.458325 533.700231 478.458325 533.700231-62.062242 729.863936-62.062242 729.863936 478.458325 732.283032 478.458325Z"  horiz-adv-x="1024" />

    
    <glyph glyph-name="xiayi" unicode="&#58929;" d="M291.716968-62.062242 512 113.739716 732.283032 289.541675 490.298745 289.541675 490.298745 830.062242 294.13504 830.062242 294.13504 289.541675 291.716968 289.541675Z"  horiz-adv-x="1024" />

    
    <glyph glyph-name="shoucang1" unicode="&#58930;" d="M752-43.2c-9.6 0-20.8 3.2-30.4 8l-208 104-209.6-104c-20.8-11.2-48-9.6-67.2 4.8s-30.4 40-25.6 64l43.2 224-164.8 153.6c-17.6 17.6-24 44.8-17.6 67.2 8 24 27.2 41.6 52.8 44.8l228.8 41.6 102.4 208c11.2 22.4 33.6 36.8 57.6 36.8s48-14.4 57.6-36.8l102.4-208 228.8-40c24-3.2 44.8-20.8 51.2-44.8 8-24 1.6-49.6-16-67.2l-164.8-155.2 41.6-224c4.8-25.6-6.4-49.6-25.6-64-9.6-8-22.4-12.8-36.8-12.8z"  horiz-adv-x="1024" />

    


  </font>
</defs>
</svg>
